<svg width="65" height="58" viewBox="0 0 65 58" fill="none" xmlns="http://www.w3.org/2000/svg">
<path id="Vector" d="M12.8734 43.1961L12.675 43.5246L12.9411 43.8012C17.6511 48.6971 24.6757 51.8154 32.5 51.8154C40.3243 51.8154 47.3489 48.6971 52.0589 43.8012L52.325 43.5246L52.1266 43.1961C49.5673 38.9575 44.5774 36.0619 38.7903 36.0619C38.4274 36.0619 38.0694 36.115 37.7306 36.2057L37.7306 36.2056L37.7222 36.208C36.067 36.682 34.3185 36.984 32.5 36.984C32.4571 36.984 32.401 36.986 32.3425 36.9964L32.3409 36.9967C32.3058 37.0029 32.1587 37.0289 32.0374 37.1531C31.9597 37.2326 31.8976 37.3483 31.8909 37.4888C31.89 37.5075 31.8901 37.5255 31.8911 37.5429C31.3727 37.403 30.8779 37.2698 30.4124 37.1446C29.2218 36.8246 28.222 36.5579 27.5097 36.3711C27.1538 36.2777 26.8681 36.204 26.6658 36.1533C26.565 36.1281 26.4824 36.108 26.4212 36.094C26.391 36.0871 26.3626 36.0809 26.3383 36.0761C26.3353 36.0755 26.273 36.0619 26.2097 36.0619C20.4226 36.0619 15.4327 38.9575 12.8734 43.1961ZM51.565 43.9364L51.6065 43.9482L51.6455 43.9593L51.6476 43.9599L51.6503 43.9607L51.6541 43.9617L51.6579 43.9628C51.7023 43.9706 51.8521 43.8678 51.9537 43.6999C52.0274 43.578 52.0757 43.4218 52.0398 43.2485C52.0234 43.169 51.9892 43.086 51.9316 43.001L51.9276 42.9999L51.9258 42.9994L51.9241 42.9989L51.9225 42.9984L51.9213 42.9981L51.9182 42.9972L51.8798 42.9863L51.8353 42.9736L51.8353 42.9735L51.8301 42.9721L51.8279 42.9715L51.4231 42.8562C51.3805 42.844 51.3354 42.8311 51.2878 42.8175C48.7221 39.0844 44.1147 36.5619 38.7903 36.5619C38.4758 36.5619 38.1613 36.608 37.8599 36.6887C36.4626 37.0888 34.9936 37.3708 33.4678 37.4566C33.3039 37.3973 33.1614 37.3436 33.042 37.296C32.937 37.2541 32.8554 37.2191 32.7957 37.1909C32.7281 37.159 32.7133 37.1473 32.7237 37.155C32.7285 37.1586 32.741 37.1681 32.7568 37.1837C32.771 37.1977 32.8004 37.2287 32.828 37.277C32.8508 37.317 32.8827 37.387 32.8891 37.4795C32.7598 37.4825 32.6301 37.484 32.5 37.484C32.3495 37.484 32.358 37.5256 32.5 37.6019C32.5743 37.6419 32.6852 37.6913 32.8291 37.7493C32.8213 37.7633 32.8129 37.7767 32.804 37.7895L51.565 43.9364ZM0.5 29.1851C0.5 13.7287 14.7603 1.1001 32.5 1.1001C50.2397 1.1001 64.5 13.7287 64.5 29.1851C64.5 44.6415 50.2397 57.2701 32.5 57.2701C14.7603 57.2701 0.5 44.6415 0.5 29.1851ZM44.5323 21.8083C44.5323 15.8721 39.0829 11.1653 32.5 11.1653C25.9171 11.1653 20.4677 15.8721 20.4677 21.8083C20.4677 27.7446 25.9171 32.4514 32.5 32.4514C39.0829 32.4514 44.5323 27.7446 44.5323 21.8083Z" fill="white" stroke="white"/>
</svg>
