<svg width="34" height="26" viewBox="0 0 34 26" fill="none" xmlns="http://www.w3.org/2000/svg">
<path id="Vector" d="M33.3559 8.58542C33.6148 8.37552 34 8.57188 34 8.90365V22.75C34 24.5443 32.5723 26 30.8125 26H3.1875C1.42773 26 0 24.5443 0 22.75V8.91042C0 8.57188 0.378516 8.38229 0.644141 8.59219C2.13164 9.77031 4.10391 11.2667 10.8773 16.2839C12.2785 17.3266 14.6426 19.5203 17 19.5068C19.3707 19.5271 21.7812 17.2859 23.1293 16.2839C29.9027 11.2667 31.8684 9.76354 33.3559 8.58542ZM17 17.3333C18.5406 17.3604 20.7586 15.3563 21.8742 14.5302C30.6863 8.0099 31.357 7.44115 33.3891 5.81615C33.7742 5.51146 34 5.0375 34 4.53646V3.25C34 1.45573 32.5723 0 30.8125 0H3.1875C1.42773 0 0 1.45573 0 3.25V4.53646C0 5.0375 0.225781 5.50469 0.610937 5.81615C2.64297 7.43437 3.31367 8.0099 12.1258 14.5302C13.2414 15.3563 15.4594 17.3604 17 17.3333Z" fill="black"/>
</svg>
